<?xml version="1.0" encoding="utf-8" standalone="no"?>
<!DOCTYPE svg PUBLIC "-//W3C//DTD SVG 1.1//EN"
  "http://www.w3.org/Graphics/SVG/1.1/DTD/svg11.dtd">
<svg xmlns:xlink="http://www.w3.org/1999/xlink" width="720pt" height="432pt" viewBox="0 0 720 432" xmlns="http://www.w3.org/2000/svg" version="1.1">
 <metadata>
  <rdf:RDF xmlns:dc="http://purl.org/dc/elements/1.1/" xmlns:cc="http://creativecommons.org/ns#" xmlns:rdf="http://www.w3.org/1999/02/22-rdf-syntax-ns#">
   <cc:Work>
    <dc:type rdf:resource="http://purl.org/dc/dcmitype/StillImage"/>
    <dc:date>2025-04-19T18:36:42.698341</dc:date>
    <dc:format>image/svg+xml</dc:format>
    <dc:creator>
     <cc:Agent>
      <dc:title>Matplotlib v3.10.0, https://matplotlib.org/</dc:title>
     </cc:Agent>
    </dc:creator>
   </cc:Work>
  </rdf:RDF>
 </metadata>
 <defs>
  <style type="text/css">*{stroke-linejoin: round; stroke-linecap: butt}</style>
 </defs>
 <g id="figure_1">
  <g id="patch_1">
   <path d="M 0 432 
L 720 432 
L 720 0 
L 0 0 
z
" style="fill: #ffffff"/>
  </g>
  <g id="axes_1">
   <g id="patch_2">
    <path d="M 47.72 404.12 
L 681.73 404.12 
L 681.73 26.88 
L 47.72 26.88 
z
" style="fill: #ffffff"/>
   </g>
   <g id="matplotlib.axis_1">
    <g id="xtick_1">
     <g id="line2d_1">
      <defs>
       <path id="mb8935a13c4" d="M 0 0 
L 0 3.5 
" style="stroke: #000000; stroke-width: 0.8"/>
      </defs>
      <g>
       <use xlink:href="#mb8935a13c4" x="54.390358" y="404.12" style="stroke: #000000; stroke-width: 0.8"/>
      </g>
     </g>
     <g id="text_1">
      <!-- 2009 -->
      <g transform="translate(41.665358 418.718437) scale(0.1 -0.1)">
       <defs>
        <path id="DejaVuSans-32" d="M 1228 531 
L 3431 531 
L 3431 0 
L 469 0 
L 469 531 
Q 828 903 1448 1529 
Q 2069 2156 2228 2338 
Q 2531 2678 2651 2914 
Q 2772 3150 2772 3378 
Q 2772 3750 2511 3984 
Q 2250 4219 1831 4219 
Q 1534 4219 1204 4116 
Q 875 4013 500 3803 
L 500 4441 
Q 881 4594 1212 4672 
Q 1544 4750 1819 4750 
Q 2544 4750 2975 4387 
Q 3406 4025 3406 3419 
Q 3406 3131 3298 2873 
Q 3191 2616 2906 2266 
Q 2828 2175 2409 1742 
Q 1991 1309 1228 531 
z
" transform="scale(0.015625)"/>
        <path id="DejaVuSans-30" d="M 2034 4250 
Q 1547 4250 1301 3770 
Q 1056 3291 1056 2328 
Q 1056 1369 1301 889 
Q 1547 409 2034 409 
Q 2525 409 2770 889 
Q 3016 1369 3016 2328 
Q 3016 3291 2770 3770 
Q 2525 4250 2034 4250 
z
M 2034 4750 
Q 2819 4750 3233 4129 
Q 3647 3509 3647 2328 
Q 3647 1150 3233 529 
Q 2819 -91 2034 -91 
Q 1250 -91 836 529 
Q 422 1150 422 2328 
Q 422 3509 836 4129 
Q 1250 4750 2034 4750 
z
" transform="scale(0.015625)"/>
        <path id="DejaVuSans-39" d="M 703 97 
L 703 672 
Q 941 559 1184 500 
Q 1428 441 1663 441 
Q 2288 441 2617 861 
Q 2947 1281 2994 2138 
Q 2813 1869 2534 1725 
Q 2256 1581 1919 1581 
Q 1219 1581 811 2004 
Q 403 2428 403 3163 
Q 403 3881 828 4315 
Q 1253 4750 1959 4750 
Q 2769 4750 3195 4129 
Q 3622 3509 3622 2328 
Q 3622 1225 3098 567 
Q 2575 -91 1691 -91 
Q 1453 -91 1209 -44 
Q 966 3 703 97 
z
M 1959 2075 
Q 2384 2075 2632 2365 
Q 2881 2656 2881 3163 
Q 2881 3666 2632 3958 
Q 2384 4250 1959 4250 
Q 1534 4250 1286 3958 
Q 1038 3666 1038 3163 
Q 1038 2656 1286 2365 
Q 1534 2075 1959 2075 
z
" transform="scale(0.015625)"/>
       </defs>
       <use xlink:href="#DejaVuSans-32"/>
       <use xlink:href="#DejaVuSans-30" transform="translate(63.623047 0)"/>
       <use xlink:href="#DejaVuSans-30" transform="translate(127.246094 0)"/>
       <use xlink:href="#DejaVuSans-39" transform="translate(190.869141 0)"/>
      </g>
     </g>
    </g>
    <g id="xtick_2">
     <g id="line2d_2">
      <g>
       <use xlink:href="#mb8935a13c4" x="92.166627" y="404.12" style="stroke: #000000; stroke-width: 0.8"/>
      </g>
     </g>
     <g id="text_2">
      <!-- 2010 -->
      <g transform="translate(79.441627 418.718437) scale(0.1 -0.1)">
       <defs>
        <path id="DejaVuSans-31" d="M 794 531 
L 1825 531 
L 1825 4091 
L 703 3866 
L 703 4441 
L 1819 4666 
L 2450 4666 
L 2450 531 
L 3481 531 
L 3481 0 
L 794 0 
L 794 531 
z
" transform="scale(0.015625)"/>
       </defs>
       <use xlink:href="#DejaVuSans-32"/>
       <use xlink:href="#DejaVuSans-30" transform="translate(63.623047 0)"/>
       <use xlink:href="#DejaVuSans-31" transform="translate(127.246094 0)"/>
       <use xlink:href="#DejaVuSans-30" transform="translate(190.869141 0)"/>
      </g>
     </g>
    </g>
    <g id="xtick_3">
     <g id="line2d_3">
      <g>
       <use xlink:href="#mb8935a13c4" x="129.942897" y="404.12" style="stroke: #000000; stroke-width: 0.8"/>
      </g>
     </g>
     <g id="text_3">
      <!-- 2011 -->
      <g transform="translate(117.217897 418.718437) scale(0.1 -0.1)">
       <use xlink:href="#DejaVuSans-32"/>
       <use xlink:href="#DejaVuSans-30" transform="translate(63.623047 0)"/>
       <use xlink:href="#DejaVuSans-31" transform="translate(127.246094 0)"/>
       <use xlink:href="#DejaVuSans-31" transform="translate(190.869141 0)"/>
      </g>
     </g>
    </g>
    <g id="xtick_4">
     <g id="line2d_4">
      <g>
       <use xlink:href="#mb8935a13c4" x="167.822663" y="404.12" style="stroke: #000000; stroke-width: 0.8"/>
      </g>
     </g>
     <g id="text_4">
      <!-- 2012 -->
      <g transform="translate(155.097663 418.718437) scale(0.1 -0.1)">
       <use xlink:href="#DejaVuSans-32"/>
       <use xlink:href="#DejaVuSans-30" transform="translate(63.623047 0)"/>
       <use xlink:href="#DejaVuSans-31" transform="translate(127.246094 0)"/>
       <use xlink:href="#DejaVuSans-32" transform="translate(190.869141 0)"/>
      </g>
     </g>
    </g>
    <g id="xtick_5">
     <g id="line2d_5">
      <g>
       <use xlink:href="#mb8935a13c4" x="205.598933" y="404.12" style="stroke: #000000; stroke-width: 0.8"/>
      </g>
     </g>
     <g id="text_5">
      <!-- 2013 -->
      <g transform="translate(192.873933 418.718437) scale(0.1 -0.1)">
       <defs>
        <path id="DejaVuSans-33" d="M 2597 2516 
Q 3050 2419 3304 2112 
Q 3559 1806 3559 1356 
Q 3559 666 3084 287 
Q 2609 -91 1734 -91 
Q 1441 -91 1130 -33 
Q 819 25 488 141 
L 488 750 
Q 750 597 1062 519 
Q 1375 441 1716 441 
Q 2309 441 2620 675 
Q 2931 909 2931 1356 
Q 2931 1769 2642 2001 
Q 2353 2234 1838 2234 
L 1294 2234 
L 1294 2753 
L 1863 2753 
Q 2328 2753 2575 2939 
Q 2822 3125 2822 3475 
Q 2822 3834 2567 4026 
Q 2313 4219 1838 4219 
Q 1578 4219 1281 4162 
Q 984 4106 628 3988 
L 628 4550 
Q 988 4650 1302 4700 
Q 1616 4750 1894 4750 
Q 2613 4750 3031 4423 
Q 3450 4097 3450 3541 
Q 3450 3153 3228 2886 
Q 3006 2619 2597 2516 
z
" transform="scale(0.015625)"/>
       </defs>
       <use xlink:href="#DejaVuSans-32"/>
       <use xlink:href="#DejaVuSans-30" transform="translate(63.623047 0)"/>
       <use xlink:href="#DejaVuSans-31" transform="translate(127.246094 0)"/>
       <use xlink:href="#DejaVuSans-33" transform="translate(190.869141 0)"/>
      </g>
     </g>
    </g>
    <g id="xtick_6">
     <g id="line2d_6">
      <g>
       <use xlink:href="#mb8935a13c4" x="243.375202" y="404.12" style="stroke: #000000; stroke-width: 0.8"/>
      </g>
     </g>
     <g id="text_6">
      <!-- 2014 -->
      <g transform="translate(230.650202 418.718437) scale(0.1 -0.1)">
       <defs>
        <path id="DejaVuSans-34" d="M 2419 4116 
L 825 1625 
L 2419 1625 
L 2419 4116 
z
M 2253 4666 
L 3047 4666 
L 3047 1625 
L 3713 1625 
L 3713 1100 
L 3047 1100 
L 3047 0 
L 2419 0 
L 2419 1100 
L 313 1100 
L 313 1709 
L 2253 4666 
z
" transform="scale(0.015625)"/>
       </defs>
       <use xlink:href="#DejaVuSans-32"/>
       <use xlink:href="#DejaVuSans-30" transform="translate(63.623047 0)"/>
       <use xlink:href="#DejaVuSans-31" transform="translate(127.246094 0)"/>
       <use xlink:href="#DejaVuSans-34" transform="translate(190.869141 0)"/>
      </g>
     </g>
    </g>
    <g id="xtick_7">
     <g id="line2d_7">
      <g>
       <use xlink:href="#mb8935a13c4" x="281.151472" y="404.12" style="stroke: #000000; stroke-width: 0.8"/>
      </g>
     </g>
     <g id="text_7">
      <!-- 2015 -->
      <g transform="translate(268.426472 418.718437) scale(0.1 -0.1)">
       <defs>
        <path id="DejaVuSans-35" d="M 691 4666 
L 3169 4666 
L 3169 4134 
L 1269 4134 
L 1269 2991 
Q 1406 3038 1543 3061 
Q 1681 3084 1819 3084 
Q 2600 3084 3056 2656 
Q 3513 2228 3513 1497 
Q 3513 744 3044 326 
Q 2575 -91 1722 -91 
Q 1428 -91 1123 -41 
Q 819 9 494 109 
L 494 744 
Q 775 591 1075 516 
Q 1375 441 1709 441 
Q 2250 441 2565 725 
Q 2881 1009 2881 1497 
Q 2881 1984 2565 2268 
Q 2250 2553 1709 2553 
Q 1456 2553 1204 2497 
Q 953 2441 691 2322 
L 691 4666 
z
" transform="scale(0.015625)"/>
       </defs>
       <use xlink:href="#DejaVuSans-32"/>
       <use xlink:href="#DejaVuSans-30" transform="translate(63.623047 0)"/>
       <use xlink:href="#DejaVuSans-31" transform="translate(127.246094 0)"/>
       <use xlink:href="#DejaVuSans-35" transform="translate(190.869141 0)"/>
      </g>
     </g>
    </g>
    <g id="xtick_8">
     <g id="line2d_8">
      <g>
       <use xlink:href="#mb8935a13c4" x="319.031238" y="404.12" style="stroke: #000000; stroke-width: 0.8"/>
      </g>
     </g>
     <g id="text_8">
      <!-- 2016 -->
      <g transform="translate(306.306238 418.718437) scale(0.1 -0.1)">
       <defs>
        <path id="DejaVuSans-36" d="M 2113 2584 
Q 1688 2584 1439 2293 
Q 1191 2003 1191 1497 
Q 1191 994 1439 701 
Q 1688 409 2113 409 
Q 2538 409 2786 701 
Q 3034 994 3034 1497 
Q 3034 2003 2786 2293 
Q 2538 2584 2113 2584 
z
M 3366 4563 
L 3366 3988 
Q 3128 4100 2886 4159 
Q 2644 4219 2406 4219 
Q 1781 4219 1451 3797 
Q 1122 3375 1075 2522 
Q 1259 2794 1537 2939 
Q 1816 3084 2150 3084 
Q 2853 3084 3261 2657 
Q 3669 2231 3669 1497 
Q 3669 778 3244 343 
Q 2819 -91 2113 -91 
Q 1303 -91 875 529 
Q 447 1150 447 2328 
Q 447 3434 972 4092 
Q 1497 4750 2381 4750 
Q 2619 4750 2861 4703 
Q 3103 4656 3366 4563 
z
" transform="scale(0.015625)"/>
       </defs>
       <use xlink:href="#DejaVuSans-32"/>
       <use xlink:href="#DejaVuSans-30" transform="translate(63.623047 0)"/>
       <use xlink:href="#DejaVuSans-31" transform="translate(127.246094 0)"/>
       <use xlink:href="#DejaVuSans-36" transform="translate(190.869141 0)"/>
      </g>
     </g>
    </g>
    <g id="xtick_9">
     <g id="line2d_9">
      <g>
       <use xlink:href="#mb8935a13c4" x="356.807508" y="404.12" style="stroke: #000000; stroke-width: 0.8"/>
      </g>
     </g>
     <g id="text_9">
      <!-- 2017 -->
      <g transform="translate(344.082508 418.718437) scale(0.1 -0.1)">
       <defs>
        <path id="DejaVuSans-37" d="M 525 4666 
L 3525 4666 
L 3525 4397 
L 1831 0 
L 1172 0 
L 2766 4134 
L 525 4134 
L 525 4666 
z
" transform="scale(0.015625)"/>
       </defs>
       <use xlink:href="#DejaVuSans-32"/>
       <use xlink:href="#DejaVuSans-30" transform="translate(63.623047 0)"/>
       <use xlink:href="#DejaVuSans-31" transform="translate(127.246094 0)"/>
       <use xlink:href="#DejaVuSans-37" transform="translate(190.869141 0)"/>
      </g>
     </g>
    </g>
    <g id="xtick_10">
     <g id="line2d_10">
      <g>
       <use xlink:href="#mb8935a13c4" x="394.583777" y="404.12" style="stroke: #000000; stroke-width: 0.8"/>
      </g>
     </g>
     <g id="text_10">
      <!-- 2018 -->
      <g transform="translate(381.858777 418.718437) scale(0.1 -0.1)">
       <defs>
        <path id="DejaVuSans-38" d="M 2034 2216 
Q 1584 2216 1326 1975 
Q 1069 1734 1069 1313 
Q 1069 891 1326 650 
Q 1584 409 2034 409 
Q 2484 409 2743 651 
Q 3003 894 3003 1313 
Q 3003 1734 2745 1975 
Q 2488 2216 2034 2216 
z
M 1403 2484 
Q 997 2584 770 2862 
Q 544 3141 544 3541 
Q 544 4100 942 4425 
Q 1341 4750 2034 4750 
Q 2731 4750 3128 4425 
Q 3525 4100 3525 3541 
Q 3525 3141 3298 2862 
Q 3072 2584 2669 2484 
Q 3125 2378 3379 2068 
Q 3634 1759 3634 1313 
Q 3634 634 3220 271 
Q 2806 -91 2034 -91 
Q 1263 -91 848 271 
Q 434 634 434 1313 
Q 434 1759 690 2068 
Q 947 2378 1403 2484 
z
M 1172 3481 
Q 1172 3119 1398 2916 
Q 1625 2713 2034 2713 
Q 2441 2713 2670 2916 
Q 2900 3119 2900 3481 
Q 2900 3844 2670 4047 
Q 2441 4250 2034 4250 
Q 1625 4250 1398 4047 
Q 1172 3844 1172 3481 
z
" transform="scale(0.015625)"/>
       </defs>
       <use xlink:href="#DejaVuSans-32"/>
       <use xlink:href="#DejaVuSans-30" transform="translate(63.623047 0)"/>
       <use xlink:href="#DejaVuSans-31" transform="translate(127.246094 0)"/>
       <use xlink:href="#DejaVuSans-38" transform="translate(190.869141 0)"/>
      </g>
     </g>
    </g>
    <g id="xtick_11">
     <g id="line2d_11">
      <g>
       <use xlink:href="#mb8935a13c4" x="432.360047" y="404.12" style="stroke: #000000; stroke-width: 0.8"/>
      </g>
     </g>
     <g id="text_11">
      <!-- 2019 -->
      <g transform="translate(419.635047 418.718437) scale(0.1 -0.1)">
       <use xlink:href="#DejaVuSans-32"/>
       <use xlink:href="#DejaVuSans-30" transform="translate(63.623047 0)"/>
       <use xlink:href="#DejaVuSans-31" transform="translate(127.246094 0)"/>
       <use xlink:href="#DejaVuSans-39" transform="translate(190.869141 0)"/>
      </g>
     </g>
    </g>
    <g id="xtick_12">
     <g id="line2d_12">
      <g>
       <use xlink:href="#mb8935a13c4" x="470.239813" y="404.12" style="stroke: #000000; stroke-width: 0.8"/>
      </g>
     </g>
     <g id="text_12">
      <!-- 2020 -->
      <g transform="translate(457.514813 418.718437) scale(0.1 -0.1)">
       <use xlink:href="#DejaVuSans-32"/>
       <use xlink:href="#DejaVuSans-30" transform="translate(63.623047 0)"/>
       <use xlink:href="#DejaVuSans-32" transform="translate(127.246094 0)"/>
       <use xlink:href="#DejaVuSans-30" transform="translate(190.869141 0)"/>
      </g>
     </g>
    </g>
    <g id="xtick_13">
     <g id="line2d_13">
      <g>
       <use xlink:href="#mb8935a13c4" x="508.016083" y="404.12" style="stroke: #000000; stroke-width: 0.8"/>
      </g>
     </g>
     <g id="text_13">
      <!-- 2021 -->
      <g transform="translate(495.291083 418.718437) scale(0.1 -0.1)">
       <use xlink:href="#DejaVuSans-32"/>
       <use xlink:href="#DejaVuSans-30" transform="translate(63.623047 0)"/>
       <use xlink:href="#DejaVuSans-32" transform="translate(127.246094 0)"/>
       <use xlink:href="#DejaVuSans-31" transform="translate(190.869141 0)"/>
      </g>
     </g>
    </g>
    <g id="xtick_14">
     <g id="line2d_14">
      <g>
       <use xlink:href="#mb8935a13c4" x="545.792353" y="404.12" style="stroke: #000000; stroke-width: 0.8"/>
      </g>
     </g>
     <g id="text_14">
      <!-- 2022 -->
      <g transform="translate(533.067353 418.718437) scale(0.1 -0.1)">
       <use xlink:href="#DejaVuSans-32"/>
       <use xlink:href="#DejaVuSans-30" transform="translate(63.623047 0)"/>
       <use xlink:href="#DejaVuSans-32" transform="translate(127.246094 0)"/>
       <use xlink:href="#DejaVuSans-32" transform="translate(190.869141 0)"/>
      </g>
     </g>
    </g>
    <g id="xtick_15">
     <g id="line2d_15">
      <g>
       <use xlink:href="#mb8935a13c4" x="583.568622" y="404.12" style="stroke: #000000; stroke-width: 0.8"/>
      </g>
     </g>
     <g id="text_15">
      <!-- 2023 -->
      <g transform="translate(570.843622 418.718437) scale(0.1 -0.1)">
       <use xlink:href="#DejaVuSans-32"/>
       <use xlink:href="#DejaVuSans-30" transform="translate(63.623047 0)"/>
       <use xlink:href="#DejaVuSans-32" transform="translate(127.246094 0)"/>
       <use xlink:href="#DejaVuSans-33" transform="translate(190.869141 0)"/>
      </g>
     </g>
    </g>
    <g id="xtick_16">
     <g id="line2d_16">
      <g>
       <use xlink:href="#mb8935a13c4" x="621.448388" y="404.12" style="stroke: #000000; stroke-width: 0.8"/>
      </g>
     </g>
     <g id="text_16">
      <!-- 2024 -->
      <g transform="translate(608.723388 418.718437) scale(0.1 -0.1)">
       <use xlink:href="#DejaVuSans-32"/>
       <use xlink:href="#DejaVuSans-30" transform="translate(63.623047 0)"/>
       <use xlink:href="#DejaVuSans-32" transform="translate(127.246094 0)"/>
       <use xlink:href="#DejaVuSans-34" transform="translate(190.869141 0)"/>
      </g>
     </g>
    </g>
    <g id="xtick_17">
     <g id="line2d_17">
      <g>
       <use xlink:href="#mb8935a13c4" x="659.224658" y="404.12" style="stroke: #000000; stroke-width: 0.8"/>
      </g>
     </g>
     <g id="text_17">
      <!-- 2025 -->
      <g transform="translate(646.499658 418.718437) scale(0.1 -0.1)">
       <use xlink:href="#DejaVuSans-32"/>
       <use xlink:href="#DejaVuSans-30" transform="translate(63.623047 0)"/>
       <use xlink:href="#DejaVuSans-32" transform="translate(127.246094 0)"/>
       <use xlink:href="#DejaVuSans-35" transform="translate(190.869141 0)"/>
      </g>
     </g>
    </g>
   </g>
   <g id="matplotlib.axis_2">
    <g id="ytick_1">
     <g id="line2d_18">
      <defs>
       <path id="m576d5200a8" d="M 0 0 
L -3.5 0 
" style="stroke: #000000; stroke-width: 0.8"/>
      </defs>
      <g>
       <use xlink:href="#m576d5200a8" x="47.72" y="404.12" style="stroke: #000000; stroke-width: 0.8"/>
      </g>
     </g>
     <g id="text_18">
      <!-- 3.0 -->
      <g transform="translate(24.816875 407.919219) scale(0.1 -0.1)">
       <defs>
        <path id="DejaVuSans-2e" d="M 684 794 
L 1344 794 
L 1344 0 
L 684 0 
L 684 794 
z
" transform="scale(0.015625)"/>
       </defs>
       <use xlink:href="#DejaVuSans-33"/>
       <use xlink:href="#DejaVuSans-2e" transform="translate(63.623047 0)"/>
       <use xlink:href="#DejaVuSans-30" transform="translate(95.410156 0)"/>
      </g>
     </g>
    </g>
    <g id="ytick_2">
     <g id="line2d_19">
      <g>
       <use xlink:href="#m576d5200a8" x="47.72" y="356.965" style="stroke: #000000; stroke-width: 0.8"/>
      </g>
     </g>
     <g id="text_19">
      <!-- 3.5 -->
      <g transform="translate(24.816875 360.764219) scale(0.1 -0.1)">
       <use xlink:href="#DejaVuSans-33"/>
       <use xlink:href="#DejaVuSans-2e" transform="translate(63.623047 0)"/>
       <use xlink:href="#DejaVuSans-35" transform="translate(95.410156 0)"/>
      </g>
     </g>
    </g>
    <g id="ytick_3">
     <g id="line2d_20">
      <g>
       <use xlink:href="#m576d5200a8" x="47.72" y="309.81" style="stroke: #000000; stroke-width: 0.8"/>
      </g>
     </g>
     <g id="text_20">
      <!-- 4.0 -->
      <g transform="translate(24.816875 313.609219) scale(0.1 -0.1)">
       <use xlink:href="#DejaVuSans-34"/>
       <use xlink:href="#DejaVuSans-2e" transform="translate(63.623047 0)"/>
       <use xlink:href="#DejaVuSans-30" transform="translate(95.410156 0)"/>
      </g>
     </g>
    </g>
    <g id="ytick_4">
     <g id="line2d_21">
      <g>
       <use xlink:href="#m576d5200a8" x="47.72" y="262.655" style="stroke: #000000; stroke-width: 0.8"/>
      </g>
     </g>
     <g id="text_21">
      <!-- 4.5 -->
      <g transform="translate(24.816875 266.454219) scale(0.1 -0.1)">
       <use xlink:href="#DejaVuSans-34"/>
       <use xlink:href="#DejaVuSans-2e" transform="translate(63.623047 0)"/>
       <use xlink:href="#DejaVuSans-35" transform="translate(95.410156 0)"/>
      </g>
     </g>
    </g>
    <g id="ytick_5">
     <g id="line2d_22">
      <g>
       <use xlink:href="#m576d5200a8" x="47.72" y="215.5" style="stroke: #000000; stroke-width: 0.8"/>
      </g>
     </g>
     <g id="text_22">
      <!-- 5.0 -->
      <g transform="translate(24.816875 219.299219) scale(0.1 -0.1)">
       <use xlink:href="#DejaVuSans-35"/>
       <use xlink:href="#DejaVuSans-2e" transform="translate(63.623047 0)"/>
       <use xlink:href="#DejaVuSans-30" transform="translate(95.410156 0)"/>
      </g>
     </g>
    </g>
    <g id="ytick_6">
     <g id="line2d_23">
      <g>
       <use xlink:href="#m576d5200a8" x="47.72" y="168.345" style="stroke: #000000; stroke-width: 0.8"/>
      </g>
     </g>
     <g id="text_23">
      <!-- 5.5 -->
      <g transform="translate(24.816875 172.144219) scale(0.1 -0.1)">
       <use xlink:href="#DejaVuSans-35"/>
       <use xlink:href="#DejaVuSans-2e" transform="translate(63.623047 0)"/>
       <use xlink:href="#DejaVuSans-35" transform="translate(95.410156 0)"/>
      </g>
     </g>
    </g>
    <g id="ytick_7">
     <g id="line2d_24">
      <g>
       <use xlink:href="#m576d5200a8" x="47.72" y="121.19" style="stroke: #000000; stroke-width: 0.8"/>
      </g>
     </g>
     <g id="text_24">
      <!-- 6.0 -->
      <g transform="translate(24.816875 124.989219) scale(0.1 -0.1)">
       <use xlink:href="#DejaVuSans-36"/>
       <use xlink:href="#DejaVuSans-2e" transform="translate(63.623047 0)"/>
       <use xlink:href="#DejaVuSans-30" transform="translate(95.410156 0)"/>
      </g>
     </g>
    </g>
    <g id="ytick_8">
     <g id="line2d_25">
      <g>
       <use xlink:href="#m576d5200a8" x="47.72" y="74.035" style="stroke: #000000; stroke-width: 0.8"/>
      </g>
     </g>
     <g id="text_25">
      <!-- 6.5 -->
      <g transform="translate(24.816875 77.834219) scale(0.1 -0.1)">
       <use xlink:href="#DejaVuSans-36"/>
       <use xlink:href="#DejaVuSans-2e" transform="translate(63.623047 0)"/>
       <use xlink:href="#DejaVuSans-35" transform="translate(95.410156 0)"/>
      </g>
     </g>
    </g>
    <g id="ytick_9">
     <g id="line2d_26">
      <g>
       <use xlink:href="#m576d5200a8" x="47.72" y="26.88" style="stroke: #000000; stroke-width: 0.8"/>
      </g>
     </g>
     <g id="text_26">
      <!-- 7.0 -->
      <g transform="translate(24.816875 30.679219) scale(0.1 -0.1)">
       <use xlink:href="#DejaVuSans-37"/>
       <use xlink:href="#DejaVuSans-2e" transform="translate(63.623047 0)"/>
       <use xlink:href="#DejaVuSans-30" transform="translate(95.410156 0)"/>
      </g>
     </g>
    </g>
    <g id="text_27">
     <!-- Existing Home Sales (millions) -->
     <g transform="translate(18.737188 291.307813) rotate(-90) scale(0.1 -0.1)">
      <defs>
       <path id="DejaVuSans-45" d="M 628 4666 
L 3578 4666 
L 3578 4134 
L 1259 4134 
L 1259 2753 
L 3481 2753 
L 3481 2222 
L 1259 2222 
L 1259 531 
L 3634 531 
L 3634 0 
L 628 0 
L 628 4666 
z
" transform="scale(0.015625)"/>
       <path id="DejaVuSans-78" d="M 3513 3500 
L 2247 1797 
L 3578 0 
L 2900 0 
L 1881 1375 
L 863 0 
L 184 0 
L 1544 1831 
L 300 3500 
L 978 3500 
L 1906 2253 
L 2834 3500 
L 3513 3500 
z
" transform="scale(0.015625)"/>
       <path id="DejaVuSans-69" d="M 603 3500 
L 1178 3500 
L 1178 0 
L 603 0 
L 603 3500 
z
M 603 4863 
L 1178 4863 
L 1178 4134 
L 603 4134 
L 603 4863 
z
" transform="scale(0.015625)"/>
       <path id="DejaVuSans-73" d="M 2834 3397 
L 2834 2853 
Q 2591 2978 2328 3040 
Q 2066 3103 1784 3103 
Q 1356 3103 1142 2972 
Q 928 2841 928 2578 
Q 928 2378 1081 2264 
Q 1234 2150 1697 2047 
L 1894 2003 
Q 2506 1872 2764 1633 
Q 3022 1394 3022 966 
Q 3022 478 2636 193 
Q 2250 -91 1575 -91 
Q 1294 -91 989 -36 
Q 684 19 347 128 
L 347 722 
Q 666 556 975 473 
Q 1284 391 1588 391 
Q 1994 391 2212 530 
Q 2431 669 2431 922 
Q 2431 1156 2273 1281 
Q 2116 1406 1581 1522 
L 1381 1569 
Q 847 1681 609 1914 
Q 372 2147 372 2553 
Q 372 3047 722 3315 
Q 1072 3584 1716 3584 
Q 2034 3584 2315 3537 
Q 2597 3491 2834 3397 
z
" transform="scale(0.015625)"/>
       <path id="DejaVuSans-74" d="M 1172 4494 
L 1172 3500 
L 2356 3500 
L 2356 3053 
L 1172 3053 
L 1172 1153 
Q 1172 725 1289 603 
Q 1406 481 1766 481 
L 2356 481 
L 2356 0 
L 1766 0 
Q 1100 0 847 248 
Q 594 497 594 1153 
L 594 3053 
L 172 3053 
L 172 3500 
L 594 3500 
L 594 4494 
L 1172 4494 
z
" transform="scale(0.015625)"/>
       <path id="DejaVuSans-6e" d="M 3513 2113 
L 3513 0 
L 2938 0 
L 2938 2094 
Q 2938 2591 2744 2837 
Q 2550 3084 2163 3084 
Q 1697 3084 1428 2787 
Q 1159 2491 1159 1978 
L 1159 0 
L 581 0 
L 581 3500 
L 1159 3500 
L 1159 2956 
Q 1366 3272 1645 3428 
Q 1925 3584 2291 3584 
Q 2894 3584 3203 3211 
Q 3513 2838 3513 2113 
z
" transform="scale(0.015625)"/>
       <path id="DejaVuSans-67" d="M 2906 1791 
Q 2906 2416 2648 2759 
Q 2391 3103 1925 3103 
Q 1463 3103 1205 2759 
Q 947 2416 947 1791 
Q 947 1169 1205 825 
Q 1463 481 1925 481 
Q 2391 481 2648 825 
Q 2906 1169 2906 1791 
z
M 3481 434 
Q 3481 -459 3084 -895 
Q 2688 -1331 1869 -1331 
Q 1566 -1331 1297 -1286 
Q 1028 -1241 775 -1147 
L 775 -588 
Q 1028 -725 1275 -790 
Q 1522 -856 1778 -856 
Q 2344 -856 2625 -561 
Q 2906 -266 2906 331 
L 2906 616 
Q 2728 306 2450 153 
Q 2172 0 1784 0 
Q 1141 0 747 490 
Q 353 981 353 1791 
Q 353 2603 747 3093 
Q 1141 3584 1784 3584 
Q 2172 3584 2450 3431 
Q 2728 3278 2906 2969 
L 2906 3500 
L 3481 3500 
L 3481 434 
z
" transform="scale(0.015625)"/>
       <path id="DejaVuSans-20" transform="scale(0.015625)"/>
       <path id="DejaVuSans-48" d="M 628 4666 
L 1259 4666 
L 1259 2753 
L 3553 2753 
L 3553 4666 
L 4184 4666 
L 4184 0 
L 3553 0 
L 3553 2222 
L 1259 2222 
L 1259 0 
L 628 0 
L 628 4666 
z
" transform="scale(0.015625)"/>
       <path id="DejaVuSans-6f" d="M 1959 3097 
Q 1497 3097 1228 2736 
Q 959 2375 959 1747 
Q 959 1119 1226 758 
Q 1494 397 1959 397 
Q 2419 397 2687 759 
Q 2956 1122 2956 1747 
Q 2956 2369 2687 2733 
Q 2419 3097 1959 3097 
z
M 1959 3584 
Q 2709 3584 3137 3096 
Q 3566 2609 3566 1747 
Q 3566 888 3137 398 
Q 2709 -91 1959 -91 
Q 1206 -91 779 398 
Q 353 888 353 1747 
Q 353 2609 779 3096 
Q 1206 3584 1959 3584 
z
" transform="scale(0.015625)"/>
       <path id="DejaVuSans-6d" d="M 3328 2828 
Q 3544 3216 3844 3400 
Q 4144 3584 4550 3584 
Q 5097 3584 5394 3201 
Q 5691 2819 5691 2113 
L 5691 0 
L 5113 0 
L 5113 2094 
Q 5113 2597 4934 2840 
Q 4756 3084 4391 3084 
Q 3944 3084 3684 2787 
Q 3425 2491 3425 1978 
L 3425 0 
L 2847 0 
L 2847 2094 
Q 2847 2600 2669 2842 
Q 2491 3084 2119 3084 
Q 1678 3084 1418 2786 
Q 1159 2488 1159 1978 
L 1159 0 
L 581 0 
L 581 3500 
L 1159 3500 
L 1159 2956 
Q 1356 3278 1631 3431 
Q 1906 3584 2284 3584 
Q 2666 3584 2933 3390 
Q 3200 3197 3328 2828 
z
" transform="scale(0.015625)"/>
       <path id="DejaVuSans-65" d="M 3597 1894 
L 3597 1613 
L 953 1613 
Q 991 1019 1311 708 
Q 1631 397 2203 397 
Q 2534 397 2845 478 
Q 3156 559 3463 722 
L 3463 178 
Q 3153 47 2828 -22 
Q 2503 -91 2169 -91 
Q 1331 -91 842 396 
Q 353 884 353 1716 
Q 353 2575 817 3079 
Q 1281 3584 2069 3584 
Q 2775 3584 3186 3129 
Q 3597 2675 3597 1894 
z
M 3022 2063 
Q 3016 2534 2758 2815 
Q 2500 3097 2075 3097 
Q 1594 3097 1305 2825 
Q 1016 2553 972 2059 
L 3022 2063 
z
" transform="scale(0.015625)"/>
       <path id="DejaVuSans-53" d="M 3425 4513 
L 3425 3897 
Q 3066 4069 2747 4153 
Q 2428 4238 2131 4238 
Q 1616 4238 1336 4038 
Q 1056 3838 1056 3469 
Q 1056 3159 1242 3001 
Q 1428 2844 1947 2747 
L 2328 2669 
Q 3034 2534 3370 2195 
Q 3706 1856 3706 1288 
Q 3706 609 3251 259 
Q 2797 -91 1919 -91 
Q 1588 -91 1214 -16 
Q 841 59 441 206 
L 441 856 
Q 825 641 1194 531 
Q 1563 422 1919 422 
Q 2459 422 2753 634 
Q 3047 847 3047 1241 
Q 3047 1584 2836 1778 
Q 2625 1972 2144 2069 
L 1759 2144 
Q 1053 2284 737 2584 
Q 422 2884 422 3419 
Q 422 4038 858 4394 
Q 1294 4750 2059 4750 
Q 2388 4750 2728 4690 
Q 3069 4631 3425 4513 
z
" transform="scale(0.015625)"/>
       <path id="DejaVuSans-61" d="M 2194 1759 
Q 1497 1759 1228 1600 
Q 959 1441 959 1056 
Q 959 750 1161 570 
Q 1363 391 1709 391 
Q 2188 391 2477 730 
Q 2766 1069 2766 1631 
L 2766 1759 
L 2194 1759 
z
M 3341 1997 
L 3341 0 
L 2766 0 
L 2766 531 
Q 2569 213 2275 61 
Q 1981 -91 1556 -91 
Q 1019 -91 701 211 
Q 384 513 384 1019 
Q 384 1609 779 1909 
Q 1175 2209 1959 2209 
L 2766 2209 
L 2766 2266 
Q 2766 2663 2505 2880 
Q 2244 3097 1772 3097 
Q 1472 3097 1187 3025 
Q 903 2953 641 2809 
L 641 3341 
Q 956 3463 1253 3523 
Q 1550 3584 1831 3584 
Q 2591 3584 2966 3190 
Q 3341 2797 3341 1997 
z
" transform="scale(0.015625)"/>
       <path id="DejaVuSans-6c" d="M 603 4863 
L 1178 4863 
L 1178 0 
L 603 0 
L 603 4863 
z
" transform="scale(0.015625)"/>
       <path id="DejaVuSans-28" d="M 1984 4856 
Q 1566 4138 1362 3434 
Q 1159 2731 1159 2009 
Q 1159 1288 1364 580 
Q 1569 -128 1984 -844 
L 1484 -844 
Q 1016 -109 783 600 
Q 550 1309 550 2009 
Q 550 2706 781 3412 
Q 1013 4119 1484 4856 
L 1984 4856 
z
" transform="scale(0.015625)"/>
       <path id="DejaVuSans-29" d="M 513 4856 
L 1013 4856 
Q 1481 4119 1714 3412 
Q 1947 2706 1947 2009 
Q 1947 1309 1714 600 
Q 1481 -109 1013 -844 
L 513 -844 
Q 928 -128 1133 580 
Q 1338 1288 1338 2009 
Q 1338 2731 1133 3434 
Q 928 4138 513 4856 
z
" transform="scale(0.015625)"/>
      </defs>
      <use xlink:href="#DejaVuSans-45"/>
      <use xlink:href="#DejaVuSans-78" transform="translate(63.183594 0)"/>
      <use xlink:href="#DejaVuSans-69" transform="translate(122.363281 0)"/>
      <use xlink:href="#DejaVuSans-73" transform="translate(150.146484 0)"/>
      <use xlink:href="#DejaVuSans-74" transform="translate(202.246094 0)"/>
      <use xlink:href="#DejaVuSans-69" transform="translate(241.455078 0)"/>
      <use xlink:href="#DejaVuSans-6e" transform="translate(269.238281 0)"/>
      <use xlink:href="#DejaVuSans-67" transform="translate(332.617188 0)"/>
      <use xlink:href="#DejaVuSans-20" transform="translate(396.09375 0)"/>
      <use xlink:href="#DejaVuSans-48" transform="translate(427.880859 0)"/>
      <use xlink:href="#DejaVuSans-6f" transform="translate(503.076172 0)"/>
      <use xlink:href="#DejaVuSans-6d" transform="translate(564.257812 0)"/>
      <use xlink:href="#DejaVuSans-65" transform="translate(661.669922 0)"/>
      <use xlink:href="#DejaVuSans-20" transform="translate(723.193359 0)"/>
      <use xlink:href="#DejaVuSans-53" transform="translate(754.980469 0)"/>
      <use xlink:href="#DejaVuSans-61" transform="translate(818.457031 0)"/>
      <use xlink:href="#DejaVuSans-6c" transform="translate(879.736328 0)"/>
      <use xlink:href="#DejaVuSans-65" transform="translate(907.519531 0)"/>
      <use xlink:href="#DejaVuSans-73" transform="translate(969.042969 0)"/>
      <use xlink:href="#DejaVuSans-20" transform="translate(1021.142578 0)"/>
      <use xlink:href="#DejaVuSans-28" transform="translate(1052.929688 0)"/>
      <use xlink:href="#DejaVuSans-6d" transform="translate(1091.943359 0)"/>
      <use xlink:href="#DejaVuSans-69" transform="translate(1189.355469 0)"/>
      <use xlink:href="#DejaVuSans-6c" transform="translate(1217.138672 0)"/>
      <use xlink:href="#DejaVuSans-6c" transform="translate(1244.921875 0)"/>
      <use xlink:href="#DejaVuSans-69" transform="translate(1272.705078 0)"/>
      <use xlink:href="#DejaVuSans-6f" transform="translate(1300.488281 0)"/>
      <use xlink:href="#DejaVuSans-6e" transform="translate(1361.669922 0)"/>
      <use xlink:href="#DejaVuSans-73" transform="translate(1425.048828 0)"/>
      <use xlink:href="#DejaVuSans-29" transform="translate(1477.148438 0)"/>
     </g>
    </g>
   </g>
   <g id="line2d_27">
    <path d="M 76.538636 173.0605 
L 79.747032 210.7845 
L 82.644937 213.6138 
L 85.853333 182.4915 
L 88.958232 142.8813 
L 92.166627 153.2554 
L 95.271526 180.6053 
L 98.479922 325.8427 
L 101.688317 297.5497 
L 104.793216 259.8257 
L 108.001612 269.2567 
L 111.10651 245.6792 
L 114.314906 189.0932 
L 117.523301 181.5484 
L 120.421207 226.8172 
L 123.629603 206.069 
L 126.734501 210.7845 
L 129.942897 233.4189 
L 133.047796 237.1913 
L 136.256191 246.6223 
L 139.464587 212.6707 
L 142.569486 223.9879 
L 145.777881 218.3293 
L 148.88278 270.1998 
L 152.091176 252.2809 
L 155.299571 256.0533 
L 158.300973 254.1671 
L 161.509369 264.5412 
L 164.614268 251.3378 
L 167.822663 257.9395 
L 170.927562 274.9153 
L 174.135958 265.4843 
L 177.344353 232.4758 
L 180.449252 239.0775 
L 183.657647 235.3051 
L 186.762546 211.7276 
L 189.970942 221.1586 
L 193.179337 223.0448 
L 196.077243 217.3862 
L 199.285638 223.0448 
L 202.390537 218.3293 
L 205.598933 198.5242 
L 208.703832 207.9552 
L 211.912227 178.7191 
L 215.120623 170.2312 
L 218.225522 188.1501 
L 221.433917 204.1828 
L 224.538816 224.931 
L 227.747211 227.7603 
L 230.955607 251.3378 
L 233.853513 253.224 
L 237.061908 254.1671 
L 240.166807 248.5085 
L 243.375202 225.8741 
L 246.480101 211.7276 
L 249.688497 201.3535 
L 252.896892 210.7845 
L 256.001791 199.4673 
L 259.210187 190.9794 
L 262.315086 222.1017 
L 265.523481 211.7276 
L 268.731877 232.4758 
L 271.629782 226.8172 
L 274.838178 197.5811 
L 277.943077 211.7276 
L 281.151472 182.4915 
L 284.256371 169.2881 
L 287.464766 159.8571 
L 290.673162 186.2639 
L 293.778061 163.6295 
L 296.986456 181.5484 
L 300.091355 238.1344 
L 303.299751 172.1174 
L 306.508146 171.1743 
L 309.509548 207.9552 
L 312.717944 184.3777 
L 315.822843 173.0605 
L 319.031238 165.5157 
L 322.136137 161.7433 
L 325.344533 178.7191 
L 328.552928 184.3777 
L 331.657827 171.1743 
L 334.866223 158.914 
L 337.971121 157.9709 
L 341.179517 169.2881 
L 344.387912 150.4261 
L 347.285818 170.2312 
L 350.494214 148.5399 
L 353.599112 161.7433 
L 356.807508 157.0278 
L 359.912407 166.4588 
L 363.120802 174.0036 
L 366.329198 182.4915 
L 369.434097 178.7191 
L 372.642492 170.2312 
L 375.747391 139.1089 
L 378.955786 161.7433 
L 382.164182 179.6622 
L 385.062088 164.5726 
L 388.270483 158.914 
L 391.375382 172.1174 
L 394.583777 174.9467 
L 397.688676 179.6622 
L 400.897072 183.4346 
L 404.105467 183.4346 
L 407.210366 201.3535 
L 410.418762 194.7518 
L 413.523661 185.3208 
L 416.732056 216.4431 
L 419.940452 221.1586 
L 422.838357 167.4019 
L 426.046753 195.6949 
L 429.151652 197.5811 
L 432.360047 183.4346 
L 435.464946 190.0363 
L 438.673341 175.8898 
L 441.881737 169.2881 
L 444.986636 179.6622 
L 448.195031 172.1174 
L 451.29993 182.4915 
L 454.508326 164.5726 
L 457.716721 172.1174 
L 460.718123 142.8813 
L 463.926519 190.0363 
L 467.031418 278.6877 
L 470.239813 318.2979 
L 473.344712 241.9068 
L 476.553108 134.3934 
L 479.761503 121.19 
L 482.866402 70.2626 
L 486.074798 41.0265 
L 489.179696 56.1161 
L 492.388092 49.5144 
L 495.596487 56.1161 
L 498.494393 100.4418 
L 501.702789 120.2469 
L 504.807687 135.3365 
L 508.016083 140.052 
L 511.120982 134.3934 
L 514.329377 122.1331 
L 517.537773 132.5072 
L 520.642672 93.8401 
L 523.851067 89.1246 
L 526.955966 77.8074 
L 530.164362 104.2142 
L 533.372757 74.035 
L 536.270663 119.3038 
L 539.479058 142.8813 
L 542.583957 157.9709 
L 545.792353 176.8329 
L 552.105647 233.4189 
L 555.314042 234.362 
L 558.418941 242.8499 
L 561.627337 269.2567 
L 564.732236 301.3221 
L 567.940631 307.9238 
L 571.149027 309.81 
L 574.046932 255.1102 
L 577.255328 268.3136 
L 580.360227 283.4032 
L 583.568622 281.517 
M 589.881917 303.2083 
L 593.090312 306.0376 
L 596.195211 313.5824 
L 599.403606 329.6151 
L 602.508505 326.7858 
L 605.716901 330.5582 
L 608.925296 309.81 
L 611.926699 273.9722 
L 615.135094 291.8911 
L 618.239993 296.6066 
L 621.448388 299.4359 
L 624.553287 320.1841 
L 627.761683 314.5255 
L 630.970078 323.0134 
L 634.074977 324.8996 
L 637.283373 313.5824 
L 640.388272 295.6635 
L 643.596667 287.1756 
L 646.805063 302.2652 
L 649.702968 285.2894 
L 649.702968 285.2894 
" clip-path="url(#p0f5f60e5c9)" style="fill: none; stroke: #0000ff; stroke-width: 1.5; stroke-linecap: square"/>
   </g>
   <g id="patch_3">
    <path d="M 47.72 404.12 
L 47.72 26.88 
" style="fill: none; stroke: #000000; stroke-width: 0.8; stroke-linejoin: miter; stroke-linecap: square"/>
   </g>
   <g id="patch_4">
    <path d="M 681.73 404.12 
L 681.73 26.88 
" style="fill: none; stroke: #000000; stroke-width: 0.8; stroke-linejoin: miter; stroke-linecap: square"/>
   </g>
   <g id="patch_5">
    <path d="M 47.72 404.12 
L 681.73 404.12 
" style="fill: none; stroke: #000000; stroke-width: 0.8; stroke-linejoin: miter; stroke-linecap: square"/>
   </g>
   <g id="patch_6">
    <path d="M 47.72 26.88 
L 681.73 26.88 
" style="fill: none; stroke: #000000; stroke-width: 0.8; stroke-linejoin: miter; stroke-linecap: square"/>
   </g>
   <g id="legend_1">
    <g id="patch_7">
     <path d="M 540.614375 64.23625 
L 674.73 64.23625 
Q 676.73 64.23625 676.73 62.23625 
L 676.73 33.88 
Q 676.73 31.88 674.73 31.88 
L 540.614375 31.88 
Q 538.614375 31.88 538.614375 33.88 
L 538.614375 62.23625 
Q 538.614375 64.23625 540.614375 64.23625 
z
" style="fill: #ffffff; opacity: 0.8; stroke: #cccccc; stroke-linejoin: miter"/>
    </g>
    <g id="line2d_28">
     <path d="M 542.614375 39.978437 
L 552.614375 39.978437 
L 562.614375 39.978437 
" style="fill: none; stroke: #0000ff; stroke-width: 1.5; stroke-linecap: square"/>
    </g>
    <g id="text_28">
     <!-- Existing Home Sales -->
     <g transform="translate(570.614375 43.478437) scale(0.1 -0.1)">
      <use xlink:href="#DejaVuSans-45"/>
      <use xlink:href="#DejaVuSans-78" transform="translate(63.183594 0)"/>
      <use xlink:href="#DejaVuSans-69" transform="translate(122.363281 0)"/>
      <use xlink:href="#DejaVuSans-73" transform="translate(150.146484 0)"/>
      <use xlink:href="#DejaVuSans-74" transform="translate(202.246094 0)"/>
      <use xlink:href="#DejaVuSans-69" transform="translate(241.455078 0)"/>
      <use xlink:href="#DejaVuSans-6e" transform="translate(269.238281 0)"/>
      <use xlink:href="#DejaVuSans-67" transform="translate(332.617188 0)"/>
      <use xlink:href="#DejaVuSans-20" transform="translate(396.09375 0)"/>
      <use xlink:href="#DejaVuSans-48" transform="translate(427.880859 0)"/>
      <use xlink:href="#DejaVuSans-6f" transform="translate(503.076172 0)"/>
      <use xlink:href="#DejaVuSans-6d" transform="translate(564.257812 0)"/>
      <use xlink:href="#DejaVuSans-65" transform="translate(661.669922 0)"/>
      <use xlink:href="#DejaVuSans-20" transform="translate(723.193359 0)"/>
      <use xlink:href="#DejaVuSans-53" transform="translate(754.980469 0)"/>
      <use xlink:href="#DejaVuSans-61" transform="translate(818.457031 0)"/>
      <use xlink:href="#DejaVuSans-6c" transform="translate(879.736328 0)"/>
      <use xlink:href="#DejaVuSans-65" transform="translate(907.519531 0)"/>
      <use xlink:href="#DejaVuSans-73" transform="translate(969.042969 0)"/>
     </g>
    </g>
    <g id="line2d_29">
     <path d="M 542.614375 54.656563 
L 552.614375 54.656563 
L 562.614375 54.656563 
" style="fill: none; stroke: #808080; stroke-width: 1.5; stroke-linecap: square"/>
    </g>
    <g id="text_29">
     <!-- 10‑yr Inverted yield -->
     <g transform="translate(570.614375 58.156563) scale(0.1 -0.1)">
      <defs>
       <path id="DejaVuSans-2011" d="M 313 2009 
L 1997 2009 
L 1997 1497 
L 313 1497 
L 313 2009 
z
" transform="scale(0.015625)"/>
       <path id="DejaVuSans-79" d="M 2059 -325 
Q 1816 -950 1584 -1140 
Q 1353 -1331 966 -1331 
L 506 -1331 
L 506 -850 
L 844 -850 
Q 1081 -850 1212 -737 
Q 1344 -625 1503 -206 
L 1606 56 
L 191 3500 
L 800 3500 
L 1894 763 
L 2988 3500 
L 3597 3500 
L 2059 -325 
z
" transform="scale(0.015625)"/>
       <path id="DejaVuSans-72" d="M 2631 2963 
Q 2534 3019 2420 3045 
Q 2306 3072 2169 3072 
Q 1681 3072 1420 2755 
Q 1159 2438 1159 1844 
L 1159 0 
L 581 0 
L 581 3500 
L 1159 3500 
L 1159 2956 
Q 1341 3275 1631 3429 
Q 1922 3584 2338 3584 
Q 2397 3584 2469 3576 
Q 2541 3569 2628 3553 
L 2631 2963 
z
" transform="scale(0.015625)"/>
       <path id="DejaVuSans-49" d="M 628 4666 
L 1259 4666 
L 1259 0 
L 628 0 
L 628 4666 
z
" transform="scale(0.015625)"/>
       <path id="DejaVuSans-76" d="M 191 3500 
L 800 3500 
L 1894 563 
L 2988 3500 
L 3597 3500 
L 2284 0 
L 1503 0 
L 191 3500 
z
" transform="scale(0.015625)"/>
       <path id="DejaVuSans-64" d="M 2906 2969 
L 2906 4863 
L 3481 4863 
L 3481 0 
L 2906 0 
L 2906 525 
Q 2725 213 2448 61 
Q 2172 -91 1784 -91 
Q 1150 -91 751 415 
Q 353 922 353 1747 
Q 353 2572 751 3078 
Q 1150 3584 1784 3584 
Q 2172 3584 2448 3432 
Q 2725 3281 2906 2969 
z
M 947 1747 
Q 947 1113 1208 752 
Q 1469 391 1925 391 
Q 2381 391 2643 752 
Q 2906 1113 2906 1747 
Q 2906 2381 2643 2742 
Q 2381 3103 1925 3103 
Q 1469 3103 1208 2742 
Q 947 2381 947 1747 
z
" transform="scale(0.015625)"/>
      </defs>
      <use xlink:href="#DejaVuSans-31"/>
      <use xlink:href="#DejaVuSans-30" transform="translate(63.623047 0)"/>
      <use xlink:href="#DejaVuSans-2011" transform="translate(127.246094 0)"/>
      <use xlink:href="#DejaVuSans-79" transform="translate(163.330078 0)"/>
      <use xlink:href="#DejaVuSans-72" transform="translate(222.509766 0)"/>
      <use xlink:href="#DejaVuSans-20" transform="translate(263.623047 0)"/>
      <use xlink:href="#DejaVuSans-49" transform="translate(295.410156 0)"/>
      <use xlink:href="#DejaVuSans-6e" transform="translate(324.902344 0)"/>
      <use xlink:href="#DejaVuSans-76" transform="translate(388.28125 0)"/>
      <use xlink:href="#DejaVuSans-65" transform="translate(447.460938 0)"/>
      <use xlink:href="#DejaVuSans-72" transform="translate(508.984375 0)"/>
      <use xlink:href="#DejaVuSans-74" transform="translate(550.097656 0)"/>
      <use xlink:href="#DejaVuSans-65" transform="translate(589.306641 0)"/>
      <use xlink:href="#DejaVuSans-64" transform="translate(650.830078 0)"/>
      <use xlink:href="#DejaVuSans-20" transform="translate(714.306641 0)"/>
      <use xlink:href="#DejaVuSans-79" transform="translate(746.09375 0)"/>
      <use xlink:href="#DejaVuSans-69" transform="translate(805.273438 0)"/>
      <use xlink:href="#DejaVuSans-65" transform="translate(833.056641 0)"/>
      <use xlink:href="#DejaVuSans-6c" transform="translate(894.580078 0)"/>
      <use xlink:href="#DejaVuSans-64" transform="translate(922.363281 0)"/>
     </g>
    </g>
   </g>
  </g>
  <g id="axes_2">
   <g id="matplotlib.axis_3">
    <g id="ytick_10">
     <g id="line2d_30">
      <defs>
       <path id="mdf6766e14c" d="M 0 0 
L 3.5 0 
" style="stroke: #000000; stroke-width: 0.8"/>
      </defs>
      <g>
       <use xlink:href="#mdf6766e14c" x="681.73" y="26.88" style="stroke: #000000; stroke-width: 0.8"/>
      </g>
     </g>
     <g id="text_30">
      <!-- 0 -->
      <g transform="translate(688.73 30.679219) scale(0.1 -0.1)">
       <use xlink:href="#DejaVuSans-30"/>
      </g>
     </g>
    </g>
    <g id="ytick_11">
     <g id="line2d_31">
      <g>
       <use xlink:href="#mdf6766e14c" x="681.73" y="89.753333" style="stroke: #000000; stroke-width: 0.8"/>
      </g>
     </g>
     <g id="text_31">
      <!-- 1 -->
      <g transform="translate(688.73 93.552552) scale(0.1 -0.1)">
       <use xlink:href="#DejaVuSans-31"/>
      </g>
     </g>
    </g>
    <g id="ytick_12">
     <g id="line2d_32">
      <g>
       <use xlink:href="#mdf6766e14c" x="681.73" y="152.626667" style="stroke: #000000; stroke-width: 0.8"/>
      </g>
     </g>
     <g id="text_32">
      <!-- 2 -->
      <g transform="translate(688.73 156.425885) scale(0.1 -0.1)">
       <use xlink:href="#DejaVuSans-32"/>
      </g>
     </g>
    </g>
    <g id="ytick_13">
     <g id="line2d_33">
      <g>
       <use xlink:href="#mdf6766e14c" x="681.73" y="215.5" style="stroke: #000000; stroke-width: 0.8"/>
      </g>
     </g>
     <g id="text_33">
      <!-- 3 -->
      <g transform="translate(688.73 219.299219) scale(0.1 -0.1)">
       <use xlink:href="#DejaVuSans-33"/>
      </g>
     </g>
    </g>
    <g id="ytick_14">
     <g id="line2d_34">
      <g>
       <use xlink:href="#mdf6766e14c" x="681.73" y="278.373333" style="stroke: #000000; stroke-width: 0.8"/>
      </g>
     </g>
     <g id="text_34">
      <!-- 4 -->
      <g transform="translate(688.73 282.172552) scale(0.1 -0.1)">
       <use xlink:href="#DejaVuSans-34"/>
      </g>
     </g>
    </g>
    <g id="ytick_15">
     <g id="line2d_35">
      <g>
       <use xlink:href="#mdf6766e14c" x="681.73" y="341.246667" style="stroke: #000000; stroke-width: 0.8"/>
      </g>
     </g>
     <g id="text_35">
      <!-- 5 -->
      <g transform="translate(688.73 345.045885) scale(0.1 -0.1)">
       <use xlink:href="#DejaVuSans-35"/>
      </g>
     </g>
    </g>
    <g id="ytick_16">
     <g id="line2d_36">
      <g>
       <use xlink:href="#mdf6766e14c" x="681.73" y="404.12" style="stroke: #000000; stroke-width: 0.8"/>
      </g>
     </g>
     <g id="text_36">
      <!-- 6 -->
      <g transform="translate(688.73 407.919219) scale(0.1 -0.1)">
       <use xlink:href="#DejaVuSans-36"/>
      </g>
     </g>
    </g>
    <g id="text_37">
     <!-- 10‑yr Inverted yield (%) -->
     <g transform="translate(706.690938 275.035156) rotate(-90) scale(0.1 -0.1)">
      <defs>
       <path id="DejaVuSans-25" d="M 4653 2053 
Q 4381 2053 4226 1822 
Q 4072 1591 4072 1178 
Q 4072 772 4226 539 
Q 4381 306 4653 306 
Q 4919 306 5073 539 
Q 5228 772 5228 1178 
Q 5228 1588 5073 1820 
Q 4919 2053 4653 2053 
z
M 4653 2450 
Q 5147 2450 5437 2106 
Q 5728 1763 5728 1178 
Q 5728 594 5436 251 
Q 5144 -91 4653 -91 
Q 4153 -91 3862 251 
Q 3572 594 3572 1178 
Q 3572 1766 3864 2108 
Q 4156 2450 4653 2450 
z
M 1428 4353 
Q 1159 4353 1004 4120 
Q 850 3888 850 3481 
Q 850 3069 1003 2837 
Q 1156 2606 1428 2606 
Q 1700 2606 1854 2837 
Q 2009 3069 2009 3481 
Q 2009 3884 1853 4118 
Q 1697 4353 1428 4353 
z
M 4250 4750 
L 4750 4750 
L 1831 -91 
L 1331 -91 
L 4250 4750 
z
M 1428 4750 
Q 1922 4750 2215 4408 
Q 2509 4066 2509 3481 
Q 2509 2891 2217 2550 
Q 1925 2209 1428 2209 
Q 931 2209 642 2551 
Q 353 2894 353 3481 
Q 353 4063 643 4406 
Q 934 4750 1428 4750 
z
" transform="scale(0.015625)"/>
      </defs>
      <use xlink:href="#DejaVuSans-31"/>
      <use xlink:href="#DejaVuSans-30" transform="translate(63.623047 0)"/>
      <use xlink:href="#DejaVuSans-2011" transform="translate(127.246094 0)"/>
      <use xlink:href="#DejaVuSans-79" transform="translate(163.330078 0)"/>
      <use xlink:href="#DejaVuSans-72" transform="translate(222.509766 0)"/>
      <use xlink:href="#DejaVuSans-20" transform="translate(263.623047 0)"/>
      <use xlink:href="#DejaVuSans-49" transform="translate(295.410156 0)"/>
      <use xlink:href="#DejaVuSans-6e" transform="translate(324.902344 0)"/>
      <use xlink:href="#DejaVuSans-76" transform="translate(388.28125 0)"/>
      <use xlink:href="#DejaVuSans-65" transform="translate(447.460938 0)"/>
      <use xlink:href="#DejaVuSans-72" transform="translate(508.984375 0)"/>
      <use xlink:href="#DejaVuSans-74" transform="translate(550.097656 0)"/>
      <use xlink:href="#DejaVuSans-65" transform="translate(589.306641 0)"/>
      <use xlink:href="#DejaVuSans-64" transform="translate(650.830078 0)"/>
      <use xlink:href="#DejaVuSans-20" transform="translate(714.306641 0)"/>
      <use xlink:href="#DejaVuSans-79" transform="translate(746.09375 0)"/>
      <use xlink:href="#DejaVuSans-69" transform="translate(805.273438 0)"/>
      <use xlink:href="#DejaVuSans-65" transform="translate(833.056641 0)"/>
      <use xlink:href="#DejaVuSans-6c" transform="translate(894.580078 0)"/>
      <use xlink:href="#DejaVuSans-64" transform="translate(922.363281 0)"/>
      <use xlink:href="#DejaVuSans-20" transform="translate(985.839844 0)"/>
      <use xlink:href="#DejaVuSans-28" transform="translate(1017.626953 0)"/>
      <use xlink:href="#DejaVuSans-25" transform="translate(1056.640625 0)"/>
      <use xlink:href="#DejaVuSans-29" transform="translate(1151.660156 0)"/>
     </g>
    </g>
   </g>
   <g id="line2d_37">
    <path d="M 76.538636 261.187956 
L 79.747032 258.948782 
L 82.644937 261.233516 
L 85.853333 268.742282 
L 88.958232 241.9068 
L 92.166627 228.331876 
L 95.271526 216.218552 
L 98.479922 196.552264 
L 101.688317 193.344635 
L 104.793216 186.578267 
L 108.001612 200.59902 
L 111.10651 233.790424 
L 114.314906 240.272093 
L 117.523301 251.734895 
L 120.421207 241.551429 
L 123.629603 244.107367 
L 126.734501 226.098648 
L 129.942897 215.642894 
L 133.047796 215.68862 
L 136.256191 171.68002 
L 139.464587 151.069803 
L 142.569486 162.183413 
L 145.777881 153.475457 
L 148.88278 151.249441 
L 152.091176 150.52041 
L 155.299571 150.583283 
L 158.300973 163.486606 
L 161.509369 155.949971 
L 164.614268 140.252052 
L 167.822663 128.884498 
L 170.927562 122.866622 
L 174.135958 132.397855 
L 177.344353 135.220681 
L 180.449252 136.668816 
L 183.657647 130.872493 
L 186.762546 134.95926 
L 189.970942 147.267463 
L 193.179337 151.63393 
L 196.077243 149.95455 
L 199.285638 137.479909 
L 202.390537 148.111218 
L 205.598933 171.488667 
L 208.703832 189.236094 
L 211.912227 198.981461 
L 215.120623 203.52263 
L 218.225522 191.350924 
L 221.433917 197.796193 
L 224.538816 209.332425 
L 227.747211 206.577975 
L 230.955607 197.233642 
L 233.853513 198.105044 
L 237.061908 196.967337 
L 240.166807 187.775854 
L 243.375202 190.260848 
L 246.480101 186.721161 
L 249.688497 179.033467 
L 252.896892 186.21899 
L 256.001791 171.745876 
L 259.210187 173.09543 
L 262.315086 165.658594 
L 265.523481 145.176177 
L 268.731877 151.071379 
L 271.629782 155.313073 
L 274.838178 148.5399 
L 277.943077 165.04415 
L 281.151472 175.489697 
L 284.256371 173.031921 
L 287.464766 163.135495 
L 290.673162 163.494771 
L 293.778061 157.0278 
L 296.986456 169.172281 
L 300.091355 167.887739 
L 303.299751 157.987446 
L 306.508146 138.763097 
L 309.509548 145.653442 
L 312.717944 140.381337 
L 315.822843 140.441216 
L 319.031238 130.249476 
L 322.136137 121.441493 
L 325.344533 124.74371 
L 328.552928 129.393473 
L 331.657827 137.819997 
L 334.866223 161.55468 
L 337.971121 183.554359 
L 341.179517 179.819383 
L 344.387912 178.967284 
L 347.285818 182.915212 
L 350.494214 171.323211 
L 353.599112 171.717297 
L 356.807508 164.372548 
L 359.912407 172.620387 
L 363.120802 165.775394 
L 366.329198 165.32708 
L 369.434097 175.261067 
L 372.642492 174.841911 
L 375.747391 177.933183 
L 378.955786 189.332717 
L 382.164182 206.631551 
L 385.062088 205.589965 
L 388.270483 207.266587 
L 391.375382 214.099639 
L 394.583777 209.991098 
L 397.688676 208.524054 
L 400.897072 208.529261 
L 404.105467 215.76473 
L 407.210366 225.073894 
L 410.418762 222.85618 
L 413.523661 204.976989 
L 416.732056 197.506251 
L 419.940452 195.148895 
L 422.838357 188.524346 
L 426.046753 186.099232 
L 429.151652 177.461633 
L 432.360047 157.279293 
L 435.464946 156.341909 
L 438.673341 129.134903 
L 441.881737 133.73323 
L 444.986636 134.193348 
L 448.195031 140.813098 
L 451.29993 144.004038 
L 454.508326 137.387368 
L 457.716721 121.45473 
L 460.718123 81.5798 
L 463.926519 68.226702 
L 467.031418 69.256627 
L 470.239813 72.691797 
L 473.344712 66.090097 
L 476.553108 67.747667 
L 479.761503 69.603927 
L 482.866402 76.370295 
L 486.074798 81.5798 
L 489.179696 85.58083 
L 492.388092 94.849382 
L 495.596487 105.968035 
L 498.494393 128.160739 
L 501.702789 129.6779 
L 504.807687 128.797673 
L 508.016083 122.390309 
L 511.120982 109.782981 
L 514.329377 107.557918 
L 517.537773 113.315863 
L 520.642672 126.37705 
L 523.851067 124.930963 
L 526.955966 118.989433 
L 530.164362 137.78856 
L 533.372757 148.490263 
L 536.270663 160.663519 
L 539.479058 199.624483 
L 542.583957 209.092908 
L 545.792353 224.511844 
L 548.897251 208.961173 
L 552.105647 209.075986 
L 555.314042 248.134254 
L 558.418941 277.335923 
L 561.627337 271.52014 
L 564.732236 254.241949 
L 567.940631 248.917177 
L 571.149027 262.456453 
L 574.046932 257.187754 
L 577.255328 244.421733 
L 580.360227 251.56643 
L 583.568622 262.535241 
L 586.673521 272.054563 
L 589.881917 288.925119 
L 593.090312 302.202327 
L 596.195211 328.552241 
L 599.403606 309.989638 
L 602.508505 279.6308 
L 605.716901 282.025975 
L 608.925296 291.41955 
L 611.926699 291.482423 
L 615.135094 312.267776 
L 618.239993 308.695427 
L 621.448388 297.566246 
L 624.553287 294.00593 
L 627.761683 270.256958 
L 630.970078 260.988857 
L 634.074977 284.374879 
L 637.283373 300.743004 
L 640.388272 302.983752 
L 643.596667 317.923654 
L 646.805063 306.732516 
L 649.702968 296.007806 
L 652.911364 294.962221 
L 652.911364 294.962221 
" clip-path="url(#p0f5f60e5c9)" style="fill: none; stroke: #808080; stroke-width: 1.5; stroke-linecap: square"/>
   </g>
   <g id="patch_8">
    <path d="M 47.72 404.12 
L 47.72 26.88 
" style="fill: none; stroke: #000000; stroke-width: 0.8; stroke-linejoin: miter; stroke-linecap: square"/>
   </g>
   <g id="patch_9">
    <path d="M 681.73 404.12 
L 681.73 26.88 
" style="fill: none; stroke: #000000; stroke-width: 0.8; stroke-linejoin: miter; stroke-linecap: square"/>
   </g>
   <g id="patch_10">
    <path d="M 47.72 404.12 
L 681.73 404.12 
" style="fill: none; stroke: #000000; stroke-width: 0.8; stroke-linejoin: miter; stroke-linecap: square"/>
   </g>
   <g id="patch_11">
    <path d="M 47.72 26.88 
L 681.73 26.88 
" style="fill: none; stroke: #000000; stroke-width: 0.8; stroke-linejoin: miter; stroke-linecap: square"/>
   </g>
   <g id="text_38">
    <!-- Existing Home Sales vs. 10‑yr Inverted Yield -->
    <g transform="translate(232.009688 20.88) scale(0.12 -0.12)">
     <defs>
      <path id="DejaVuSans-59" d="M -13 4666 
L 666 4666 
L 1959 2747 
L 3244 4666 
L 3922 4666 
L 2272 2222 
L 2272 0 
L 1638 0 
L 1638 2222 
L -13 4666 
z
" transform="scale(0.015625)"/>
     </defs>
     <use xlink:href="#DejaVuSans-45"/>
     <use xlink:href="#DejaVuSans-78" transform="translate(63.183594 0)"/>
     <use xlink:href="#DejaVuSans-69" transform="translate(122.363281 0)"/>
     <use xlink:href="#DejaVuSans-73" transform="translate(150.146484 0)"/>
     <use xlink:href="#DejaVuSans-74" transform="translate(202.246094 0)"/>
     <use xlink:href="#DejaVuSans-69" transform="translate(241.455078 0)"/>
     <use xlink:href="#DejaVuSans-6e" transform="translate(269.238281 0)"/>
     <use xlink:href="#DejaVuSans-67" transform="translate(332.617188 0)"/>
     <use xlink:href="#DejaVuSans-20" transform="translate(396.09375 0)"/>
     <use xlink:href="#DejaVuSans-48" transform="translate(427.880859 0)"/>
     <use xlink:href="#DejaVuSans-6f" transform="translate(503.076172 0)"/>
     <use xlink:href="#DejaVuSans-6d" transform="translate(564.257812 0)"/>
     <use xlink:href="#DejaVuSans-65" transform="translate(661.669922 0)"/>
     <use xlink:href="#DejaVuSans-20" transform="translate(723.193359 0)"/>
     <use xlink:href="#DejaVuSans-53" transform="translate(754.980469 0)"/>
     <use xlink:href="#DejaVuSans-61" transform="translate(818.457031 0)"/>
     <use xlink:href="#DejaVuSans-6c" transform="translate(879.736328 0)"/>
     <use xlink:href="#DejaVuSans-65" transform="translate(907.519531 0)"/>
     <use xlink:href="#DejaVuSans-73" transform="translate(969.042969 0)"/>
     <use xlink:href="#DejaVuSans-20" transform="translate(1021.142578 0)"/>
     <use xlink:href="#DejaVuSans-76" transform="translate(1052.929688 0)"/>
     <use xlink:href="#DejaVuSans-73" transform="translate(1112.109375 0)"/>
     <use xlink:href="#DejaVuSans-2e" transform="translate(1164.208984 0)"/>
     <use xlink:href="#DejaVuSans-20" transform="translate(1195.996094 0)"/>
     <use xlink:href="#DejaVuSans-31" transform="translate(1227.783203 0)"/>
     <use xlink:href="#DejaVuSans-30" transform="translate(1291.40625 0)"/>
     <use xlink:href="#DejaVuSans-2011" transform="translate(1355.029297 0)"/>
     <use xlink:href="#DejaVuSans-79" transform="translate(1391.113281 0)"/>
     <use xlink:href="#DejaVuSans-72" transform="translate(1450.292969 0)"/>
     <use xlink:href="#DejaVuSans-20" transform="translate(1491.40625 0)"/>
     <use xlink:href="#DejaVuSans-49" transform="translate(1523.193359 0)"/>
     <use xlink:href="#DejaVuSans-6e" transform="translate(1552.685547 0)"/>
     <use xlink:href="#DejaVuSans-76" transform="translate(1616.064453 0)"/>
     <use xlink:href="#DejaVuSans-65" transform="translate(1675.244141 0)"/>
     <use xlink:href="#DejaVuSans-72" transform="translate(1736.767578 0)"/>
     <use xlink:href="#DejaVuSans-74" transform="translate(1777.880859 0)"/>
     <use xlink:href="#DejaVuSans-65" transform="translate(1817.089844 0)"/>
     <use xlink:href="#DejaVuSans-64" transform="translate(1878.613281 0)"/>
     <use xlink:href="#DejaVuSans-20" transform="translate(1942.089844 0)"/>
     <use xlink:href="#DejaVuSans-59" transform="translate(1973.876953 0)"/>
     <use xlink:href="#DejaVuSans-69" transform="translate(2031.335938 0)"/>
     <use xlink:href="#DejaVuSans-65" transform="translate(2059.119141 0)"/>
     <use xlink:href="#DejaVuSans-6c" transform="translate(2120.642578 0)"/>
     <use xlink:href="#DejaVuSans-64" transform="translate(2148.425781 0)"/>
    </g>
   </g>
  </g>
 </g>
 <defs>
  <clipPath id="p0f5f60e5c9">
   <rect x="47.72" y="26.88" width="634.01" height="377.24"/>
  </clipPath>
 </defs>
</svg>
